<?xml version="1.0" encoding="utf-8"?>
<!-- Generator: Adobe Illustrator 23.0.1, SVG Export Plug-In . SVG Version: 6.00 Build 0)  -->
<svg version="1.1" id="Layer_1" xmlns="http://www.w3.org/2000/svg" xmlns:xlink="http://www.w3.org/1999/xlink" x="0px" y="0px"
	 width="169px" height="137px" viewBox="0 0 169 137" style="enable-background:new 0 0 169 137;" xml:space="preserve">
<style type="text/css">
	.st0{fill:#FFFFFF;}
</style>
<g>
	<path class="st0" d="M102.5,56.4h2.2v18.4h-2.2V56.4z M112,56.4h2.8l-7.4,8.7l7.4,9.8h-2.8l-7-9.8L112,56.4z"/>
	<path class="st0" d="M122.1,61.1c2.2,0,3.7,1,4.6,2.3c0.8,1.2,1.2,2.8,1.2,5c0,2.6-0.6,4.2-2.1,5.5c-1.1,0.9-2.2,1.3-3.7,1.3
		c-3.6,0-5.8-2.7-5.8-7.1C116.4,63.8,118.6,61.1,122.1,61.1 M122.1,62.9c-1.2,0-2.3,0.6-2.7,1.5c-0.4,0.8-0.6,1.9-0.6,3.5
		c0,1.9,0.3,3.5,0.8,4.4c0.5,0.8,1.6,1.4,2.7,1.4c1.4,0,2.4-0.7,2.9-2c0.3-0.8,0.4-1.6,0.4-2.9c0-1.9-0.2-3.1-0.6-4
		C124.4,63.4,123.2,62.9,122.1,62.9"/>
	<path class="st0" d="M130.6,61.7l2.1-0.6c0.3,0.7,0.5,1.1,0.5,2v0.2c1-1.4,2.4-2.2,3.8-2.2c0.3,0,0.7,0.1,0.7,0.1l-0.9,2.3
		c-0.3-0.1-0.4-0.1-0.6-0.1c-0.8,0-1.6,0.4-2.2,1c-0.6,0.6-0.8,1-0.8,2.1v8.4h-2.1V64.6C131.1,63.1,131,62.5,130.6,61.7"/>
	<path class="st0" d="M140.3,61.7l2-0.6c0.3,0.8,0.5,1.3,0.5,2.1c1.4-1.4,2.8-2.1,4.2-2.1c1.5,0,2.7,0.8,3.3,2
		c0.2,0.5,0.3,1,0.3,1.6v10.2h-2.1v-9.1c0-1.4-0.1-1.8-0.5-2.2c-0.3-0.4-0.9-0.6-1.5-0.6c-1.1,0-2.7,0.9-3.7,1.9v10h-2v-10
		C140.8,63,140.7,62.7,140.3,61.7"/>
	<path class="st0" d="M156.2,55.7c0.9,0,1.7,0.7,1.7,1.6c0,0.9-0.7,1.6-1.7,1.6c-0.9,0-1.6-0.7-1.6-1.6
		C154.5,56.4,155.3,55.7,156.2,55.7 M155.1,61.5l2.2-0.3v13.7h-2.2V61.5z"/>
	<path class="st0" d="M168.2,61l-0.6,1.6h-2.8v8.6c0,1.5,0.4,2,1.7,2c0.6,0,1-0.1,1.3-0.3l0.3,1.3c-0.7,0.4-1.4,0.5-2.4,0.5
		c-0.7,0-1.2-0.1-1.7-0.4c-0.9-0.5-1.3-1.3-1.3-2.7v-9.2h-1.7V61h1.7v-0.2c0-0.7,0.1-1.4,0.2-2.8l0-0.3l2.2-0.5c0,0-0.3,2-0.3,3.8"
		/>
	<path class="st0" d="M102.7,81.6h3.7c2.8,0,4.1,0.1,5.9,1.4c2.1,1.5,3.1,4.1,3.1,7.7c0,3.2-0.9,5.4-2.1,6.8
		c-1.6,1.8-2.9,2.3-5.8,2.3h-4.8 M104.9,83.4v14.6h2c1.2,0,1.6,0,2.3-0.1c1.1-0.2,2.1-0.9,2.7-1.8c0.9-1.4,1.2-3.2,1.2-5.1
		c0-2.8-0.4-4.5-1.6-6c-1.2-1.4-2.4-1.7-4.3-1.7H104.9z"/>
	<path class="st0" d="M119.6,80.7c0.9,0,1.6,0.7,1.6,1.6c0,0.9-0.7,1.6-1.6,1.6c-0.9,0-1.6-0.7-1.6-1.6
		C118,81.5,118.7,80.7,119.6,80.7 M118.5,86.6l2.2-0.4v13.7h-2.2V86.6z"/>
	<path class="st0" d="M135,86.4l1.3,1.3c-0.8,0.6-1.5,0.8-2.3,0.8c-0.5,0-0.6,0-0.9-0.2c0.5,0.7,0.8,1.4,0.8,2.3
		c0,1.2-0.6,2.6-1.5,3.3c-0.7,0.6-1.8,1-2.7,1h-0.3l-0.3,0.1c-1.5,0.5-2.1,1-2.1,1.5c0,0.4,0.4,0.6,1.1,0.6h2.2
		c1.6,0,2.4,0.2,3.2,0.8c1,0.7,1.5,1.7,1.5,2.8c0,1.7-0.7,3-2,3.6c-0.9,0.5-1.9,0.6-3.3,0.6c-2.5,0-4-0.5-4.9-1.3
		c-0.6-0.6-0.9-1.3-0.9-2.1c0-0.5,0.1-0.9,0.3-1.4l2.2-0.2l-0.1,0.2c-0.2,0.3-0.3,0.7-0.3,1c0,0.7,0.3,1.3,0.8,1.6
		c0.6,0.4,1.6,0.6,2.7,0.6c1.5,0,2.4-0.3,2.9-1c0.3-0.4,0.4-0.8,0.4-1.3c0-0.7-0.2-1.3-0.7-1.6c-0.5-0.4-1.3-0.5-2.6-0.5
		c-0.5,0-1.6,0-2.1,0c-1.6,0-2.5-0.7-2.5-1.9c0-1.1,0.6-1.7,2.3-2.2l0.2-0.1c-1.8-0.6-3-2.1-3-3.9c0-2.7,2-4.5,5-4.5
		c0.7,0,1.4,0.1,1.9,0.3l0.9,0.3c0.3,0.1,0.8,0.2,1.2,0.2C133.8,87,134.3,86.8,135,86.4 M129,88c-1.7,0-2.5,0.9-2.5,2.7
		c0,1.7,0.9,2.6,2.6,2.6c1.6,0,2.4-0.9,2.4-2.7C131.5,88.8,130.8,88,129,88"/>
	<path class="st0" d="M139,80.7c0.9,0,1.6,0.7,1.6,1.6c0,0.9-0.7,1.6-1.6,1.6c-0.9,0-1.6-0.7-1.6-1.6
		C137.4,81.5,138.1,80.7,139,80.7 M137.9,86.6l2.2-0.4v13.7h-2.2V86.6z"/>
	<path class="st0" d="M150.2,86.5l-0.6,1.6h-2.8v8.6c0,1.5,0.4,2,1.7,2c0.6,0,1-0.1,1.3-0.3l0.3,1.3c-0.7,0.3-1.4,0.5-2.4,0.5
		c-0.7,0-1.2-0.1-1.7-0.4c-1-0.5-1.3-1.3-1.3-2.7v-9.2h-1.7v-1.6h1.7v-0.2c0-0.7,0.1-1.4,0.2-2.8l0-0.3l2.2-0.5c0,0-0.3,2-0.3,3.8"
		/>
	<path class="st0" d="M152.2,88c1.8-1.2,3.7-1.8,5.6-1.8c1.9,0,3.1,0.7,3.7,2.1c0.2,0.6,0.3,1,0.3,2.3v0.7l-0.1,4.4
		c0,0.2,0,0.4,0,0.6c0,1.6,0.2,2.2,1.1,2.7l-1.1,1.5c-0.9-0.3-1.6-1-1.8-2c-1.3,1.3-2.3,1.8-3.9,1.8c-1.7,0-2.5-0.4-3.2-1.1
		c-0.8-0.7-1.1-1.9-1.1-2.7c0-3,2.6-4.8,7.1-4.8c0.3,0,0.5,0,0.9,0v-0.9c0-1.2-0.1-1.7-0.4-2.1c-0.4-0.5-1-0.7-1.8-0.7
		c-0.8,0-1.6,0.2-2.6,0.6c-0.8,0.3-1.1,0.5-1.7,1 M159.7,93.1c-0.5,0-0.7-0.1-1-0.1c-2,0-3.2,0.4-3.8,1.1c-0.5,0.5-0.8,1.2-0.8,2.1
		c0,1.6,0.8,2.5,2.3,2.5c1.4,0,2.6-0.8,3.3-2.1L159.7,93.1z"/>
	<path class="st0" d="M164.6,80.9l2.2-0.4c0.4,1,0.3,2.5,0.3,4.1v12.7c0,1.1,0.2,1.4,0.8,1.4l0.3-0.1l0.4,1.4
		c-0.5,0.2-0.8,0.3-1.3,0.3c-0.7,0-1.2-0.2-1.6-0.6c-0.5-0.4-0.6-0.9-0.6-1.9V84.6C165,82.6,164.9,81.8,164.6,80.9"/>
	<path class="st0" d="M103.2,120h1.4c0.2-0.3,0.2-0.5,0.3-0.9c0.5,0.6,1.5,1.1,2.4,1.1c2.1,0,3.5-1.8,3.5-4.5c0-2.6-1.3-4.3-3.4-4.3
		c-0.9,0-1.7,0.3-2.6,1.1c0-0.1,0-0.5,0-0.9v-1.9c0-0.9-0.1-1.4-0.2-2.1l-1.5,0.3c0.2,0.4,0.4,1.1,0.4,2v8
		C103.5,119,103.4,119.6,103.2,120 M104.9,113.7c0.2-0.3,0.2-0.3,0.6-0.6c0.6-0.4,1-0.5,1.6-0.5c0.7,0,1.3,0.3,1.7,0.7
		c0.4,0.5,0.5,1.2,0.5,2.3c0,1.4-0.3,2.3-0.6,2.7c-0.3,0.4-1,0.7-1.6,0.7c-0.8,0-1.7-0.4-2.2-1V113.7z M120.9,116
		c0-1.4-0.3-2.4-0.8-3.1c-0.6-0.8-1.6-1.5-3-1.5c-2.3,0-3.8,1.7-3.8,4.4c0,2.8,1.5,4.5,3.8,4.5c1,0,1.7-0.2,2.4-0.8
		C120.4,118.7,120.9,117.6,120.9,116 M119,117.9c-0.3,0.8-1,1.3-1.9,1.3c-0.8,0-1.5-0.3-1.8-0.9c-0.3-0.5-0.5-1.6-0.5-2.8
		c0-1,0.1-1.7,0.4-2.2c0.3-0.5,1-0.9,1.8-0.9c0.7,0,1.5,0.3,1.9,1.1c0.3,0.6,0.4,1.4,0.4,2.5C119.3,116.9,119.2,117.4,119,117.9
		 M128.9,112.9c-0.2-0.2-0.6-0.4-1-0.4c-0.7,0-1.8,0.5-2.5,1.2v6.3h-1.4v-6.3c0-1.2,0-1.4-0.3-2l1.3-0.4c0.2,0.5,0.3,0.8,0.3,1.3
		c0.9-0.9,1.9-1.3,2.8-1.3c1,0,1.8,0.5,2.2,1.2c0.1,0.3,0.2,0.6,0.2,1v6.4h-1.4v-5.7C129.2,113.4,129.1,113.1,128.9,112.9
		 M139,119.7c0.2-0.1,0.3-0.3,0.6-0.5c0.1,0.4,0.1,0.5,0.2,0.9h1.4c-0.1-0.3-0.1-0.4-0.2-0.7c-0.1-0.4-0.1-1.2-0.1-2v-9.4l-1.4-0.2
		v3.5c0,0.6,0,1.3,0,1.3c-0.5-0.7-1.4-1.1-2.4-1.1c-0.6,0-1.1,0.2-1.7,0.5c-1.2,0.8-1.8,2.1-1.8,3.9c0,2.7,1.3,4.3,3.6,4.3
		C138,120.1,138.6,120,139,119.7 M135.2,115.8c0-1.2,0.1-1.8,0.6-2.4c0.4-0.6,1-0.9,1.6-0.9c1.1,0,1.7,0.3,2.2,0.9v4.5
		c-0.1,0.1-0.2,0.4-0.5,0.6c-0.6,0.4-1,0.5-1.7,0.5c-0.7,0-1.1-0.1-1.4-0.5C135.4,117.9,135.2,117.3,135.2,115.8 M145.2,109
		c0-0.6,0.5-1,1.1-1c0.6,0,1.1,0.5,1.1,1c0,0.6-0.5,1-1.1,1C145.7,110,145.2,109.5,145.2,109 M145.5,111.6l1.5-0.2v8.6h-1.5V111.6z
		 M156.1,112.9c-0.2-0.2-0.6-0.4-1-0.4c-0.7,0-1.8,0.5-2.4,1.2v6.3h-1.4v-6.3c0-1.2,0-1.4-0.3-2l1.4-0.4c0.2,0.5,0.3,0.8,0.3,1.3
		c0.9-0.9,1.9-1.3,2.8-1.3c1,0,1.8,0.5,2.2,1.2c0.1,0.3,0.2,0.6,0.2,1v6.4h-1.4v-5.7C156.4,113.4,156.3,113.1,156.1,112.9
		 M167.2,122.7c0.9-0.4,1.4-1.2,1.4-2.3c0-0.7-0.3-1.3-1-1.8c-0.5-0.4-1.1-0.5-2.1-0.5H164c-0.4,0-0.7-0.2-0.7-0.4
		c0-0.3,0.4-0.6,1.4-0.9l0.2-0.1h0.2c0.6,0,1.4-0.2,1.8-0.6c0.6-0.5,1-1.3,1-2.1c0-0.5-0.2-1-0.5-1.4c0.2,0.1,0.3,0.1,0.6,0.1
		c0.5,0,1-0.1,1.5-0.5l-0.9-0.8c-0.4,0.3-0.8,0.4-1.2,0.4c-0.3,0-0.6,0-0.8-0.1l-0.6-0.2c-0.4-0.1-0.8-0.2-1.3-0.2
		c-2,0-3.3,1.1-3.3,2.8c0,1.1,0.8,2.1,2,2.4l-0.1,0c-1.1,0.3-1.5,0.7-1.5,1.4c0,0.8,0.6,1.2,1.7,1.2c0.3,0,1,0,1.4,0
		c0.9,0,1.4,0.1,1.7,0.3c0.3,0.2,0.5,0.6,0.5,1c0,0.4-0.1,0.6-0.3,0.8c-0.3,0.4-0.9,0.6-1.9,0.6c-0.7,0-1.4-0.2-1.8-0.4
		c-0.3-0.2-0.5-0.5-0.5-1c0-0.2,0.1-0.4,0.2-0.6l0.1-0.1l-1.5,0.1c-0.1,0.3-0.2,0.6-0.2,0.9c0,0.5,0.2,1,0.6,1.3
		c0.6,0.5,1.6,0.8,3.3,0.8C165.9,123.1,166.6,123,167.2,122.7 M162.9,114.2c0-1.2,0.6-1.7,1.7-1.7c1.2,0,1.6,0.5,1.6,1.7
		c0,1.1-0.5,1.7-1.6,1.7C163.5,115.9,162.9,115.3,162.9,114.2 M114.7,130.2v6.4h-1.4v-6.2c0-0.8-0.4-1.2-1.2-1.2
		c-0.4,0-0.9,0.2-1.3,0.5c-0.3,0.2-0.6,0.4-0.9,0.7l-0.2,0.1v6.2h-1.4v-6c0-0.7,0-0.8-0.2-1.1c-0.2-0.2-0.5-0.3-0.9-0.3
		c-0.7,0-1.3,0.3-2.3,1.1v6.3h-1.3v-6.3c0-1.2,0-1.4-0.3-2.1l1.4-0.3c0.2,0.3,0.3,0.8,0.3,1.2v0.1c0.4-0.4,0.6-0.5,1.1-0.8
		c0.6-0.3,1-0.5,1.5-0.5c0.7,0,1.4,0.3,1.8,0.8c0.1,0.2,0.2,0.3,0.3,0.6c0.9-0.9,2-1.4,2.9-1.4C113.8,128,114.7,128.9,114.7,130.2
		 M125.1,134.3v-0.4l0.1-2.8v-0.4c0-0.8,0-1.1-0.2-1.4c-0.4-0.9-1.2-1.3-2.5-1.3c-1.3,0-2.6,0.4-3.7,1.1l0.7,1
		c0.4-0.3,0.6-0.4,1.1-0.6c0.7-0.3,1.2-0.4,1.7-0.4c0.6,0,0.9,0.2,1.2,0.5c0.2,0.3,0.3,0.6,0.3,1.3v0.6c-0.3,0-0.4,0-0.6,0
		c-3,0-4.7,1.1-4.7,3c0,0.5,0.2,1.3,0.7,1.7c0.5,0.4,1,0.7,2.1,0.7c1,0,1.7-0.3,2.6-1.1c0.2,0.6,0.6,1.1,1.2,1.2l0.7-1
		C125.2,135.7,125.1,135.3,125.1,134.3 M123.7,134.5c-0.4,0.8-1.3,1.3-2.2,1.3c-1,0-1.5-0.6-1.5-1.5c0-0.6,0.2-1,0.5-1.3
		c0.4-0.4,1.2-0.7,2.5-0.7c0.3,0,0.4,0,0.7,0L123.7,134.5z M131.2,129.2v5.4c0,0.9,0.3,1.3,1.1,1.3c0.4,0,0.6,0,0.9-0.2l0.2,0.8
		c-0.4,0.2-0.9,0.3-1.6,0.3c-0.5,0-0.8-0.1-1.2-0.2c-0.6-0.3-0.9-0.8-0.9-1.7v-5.8h-1.2v-1h1.2v-0.1c0-0.4,0-0.9,0.1-1.8l0-0.2
		l1.5-0.3c0,0-0.2,1.3-0.2,2.4h2.3l-0.4,1H131.2z M139.3,129.2v5.4c0,0.9,0.3,1.3,1.1,1.3c0.4,0,0.6,0,0.9-0.2l0.2,0.8
		c-0.4,0.2-0.9,0.3-1.6,0.3c-0.5,0-0.8-0.1-1.2-0.2c-0.6-0.3-0.9-0.8-0.9-1.7v-5.8h-1.2v-1h1.2v-0.1c0-0.4,0-0.9,0.1-1.8l0-0.2
		l1.4-0.3c0,0-0.2,1.3-0.2,2.4h2.2l-0.4,1H139.3z M148,127.9c-1.1,0-1.9,0.4-2.7,1.2c-0.8,0.8-1.1,1.8-1.1,3.2
		c0,2.8,1.5,4.5,3.9,4.5c1.1,0,2.2-0.4,3-1.1l-0.5-0.8c-0.6,0.5-1.3,0.8-2.2,0.8c-0.9,0-1.7-0.3-2.2-1c-0.3-0.4-0.4-1-0.4-1.8v-0.2
		h5.5v-0.2c0-2-0.2-2.8-1-3.6C149.8,128.3,148.9,127.9,148,127.9 M145.8,131.6c0.1-1.8,0.8-2.6,2-2.6c0.7,0,1.3,0.3,1.6,0.8
		c0.3,0.4,0.4,1,0.4,1.9H145.8z M159.5,127.9c0.2,0,0.5,0.1,0.5,0.1l-0.6,1.4l-0.4-0.1c-0.5,0-1.1,0.2-1.5,0.6
		c-0.4,0.4-0.5,0.6-0.5,1.3v5.3h-1.4v-6.4c0-1-0.1-1.3-0.3-1.9l1.4-0.4c0.2,0.4,0.3,0.7,0.3,1.3v0.1
		C157.6,128.5,158.6,127.9,159.5,127.9 M168.7,134.1c0,1.6-1.4,2.8-3.4,2.8c-1.1,0-2.3-0.3-3.3-0.8l0.5-1c0.9,0.5,1.8,0.8,2.8,0.8
		c1.1,0,1.8-0.6,1.8-1.5c0-0.8-0.4-1.2-1.5-1.4l-1.1-0.2c-0.8-0.2-1.3-0.4-1.7-0.9c-0.4-0.4-0.6-0.9-0.6-1.5c0-1.5,1.3-2.6,3.2-2.6
		c0.9,0,2,0.3,2.7,0.7l-0.5,1c-0.8-0.4-1.4-0.6-2.2-0.6c-1,0-1.7,0.6-1.7,1.4c0,0.3,0.1,0.5,0.3,0.7c0.2,0.2,0.5,0.4,1,0.5l1.2,0.2
		C167.9,132.1,168.7,132.8,168.7,134.1"/>
	<path class="st0" d="M60.5,0.5L42.1,4.7V75H29.3V7.6L14,11L0,57.2L32.5,93L79,82.4l14-46.2L60.5,0.5z M69.5,74.9H56.8l-14-24.3
		l14-24.4h12.7L55.4,50.6L69.5,74.9z"/>
</g>
</svg>
